<?xml version="1.0" encoding="UTF-8"?>
<svg id="Layer_2" data-name="Layer 2" xmlns="http://www.w3.org/2000/svg" xmlns:xlink="http://www.w3.org/1999/xlink" viewBox="0 0 329 174">
  <defs>
    <style>
      .cls-1 {
        filter: url(#drop-shadow-3);
        stroke: url(#linear-gradient-3);
      }

      .cls-1, .cls-2, .cls-3, .cls-4 {
        fill: none;
        stroke-miterlimit: 10;
        stroke-width: 22.93px;
      }

      .cls-2 {
        filter: url(#drop-shadow-1);
        stroke: url(#linear-gradient);
      }

      .cls-5, .cls-6, .cls-7 {
        stroke-width: 0px;
      }

      .cls-3 {
        filter: url(#drop-shadow-2);
        stroke: url(#linear-gradient-2);
      }

      .cls-4 {
        filter: url(#drop-shadow-4);
        stroke: url(#linear-gradient-4);
      }

      .cls-6 {
        fill: #164147;
      }

      .cls-7 {
        fill: #966336;
      }
    </style>
    <linearGradient id="linear-gradient" x1="43.56" y1="98.39" x2="43.56" y2="10.95" gradientUnits="userSpaceOnUse">
      <stop offset="0" stop-color="#164147"/>
      <stop offset="1" stop-color="#966336"/>
    </linearGradient>
    <filter id="drop-shadow-1" filterUnits="userSpaceOnUse">
      <feOffset dx="0" dy="0"/>
      <feGaussianBlur result="blur" stdDeviation="3.47"/>
      <feFlood flood-color="#000" flood-opacity=".15"/>
      <feComposite in2="blur" operator="in"/>
      <feComposite in="SourceGraphic"/>
    </filter>
    <linearGradient id="linear-gradient-2" y1="162.9" y2="75.46" xlink:href="#linear-gradient"/>
    <filter id="drop-shadow-2" filterUnits="userSpaceOnUse">
      <feOffset dx="0" dy="0"/>
      <feGaussianBlur result="blur-2" stdDeviation="3.47"/>
      <feFlood flood-color="#000" flood-opacity=".15"/>
      <feComposite in2="blur-2" operator="in"/>
      <feComposite in="SourceGraphic"/>
    </filter>
    <linearGradient id="linear-gradient-3" x1="1850.87" y1="-65.22" x2="1850.87" y2="-152.66" gradientTransform="translate(2135.65 10.24) rotate(-180)" xlink:href="#linear-gradient"/>
    <filter id="drop-shadow-3" filterUnits="userSpaceOnUse">
      <feOffset dx="0" dy="0"/>
      <feGaussianBlur result="blur-3" stdDeviation="3.47"/>
      <feFlood flood-color="#000" flood-opacity=".15"/>
      <feComposite in2="blur-3" operator="in"/>
      <feComposite in="SourceGraphic"/>
    </filter>
    <linearGradient id="linear-gradient-4" x1="1850.87" y1="-.72" x2="1850.87" y2="-88.15" gradientTransform="translate(2135.65 10.24) rotate(-180)" xlink:href="#linear-gradient"/>
    <filter id="drop-shadow-4" filterUnits="userSpaceOnUse">
      <feOffset dx="0" dy="0"/>
      <feGaussianBlur result="blur-4" stdDeviation="3.47"/>
      <feFlood flood-color="#000" flood-opacity=".15"/>
      <feComposite in2="blur-4" operator="in"/>
      <feComposite in="SourceGraphic"/>
    </filter>
  </defs>
  <g id="objects">
    <g>
      <g>
        <path class="cls-2" d="m16.74,86.92h5.17c11.96,0,21.65-9.69,21.65-21.65v-21.21c0-11.96,9.69-21.65,21.65-21.65h3.81"/>
        <path class="cls-3" d="m16.74,86.92h5.17c11.96,0,21.65,9.69,21.65,21.65v21.21c0,11.96,9.69,21.65,21.65,21.65h3.81"/>
      </g>
      <g>
        <path class="cls-1" d="m311.6,86.92h-5.17c-11.96,0-21.65,9.69-21.65,21.65v21.21c0,11.96-9.69,21.65-21.65,21.65h-3.81"/>
        <path class="cls-4" d="m311.6,86.92h-5.17c-11.96,0-21.65-9.69-21.65-21.65v-21.21c0-11.96-9.69-21.65-21.65-21.65h-3.81"/>
      </g>
    </g>
    <g>
      <path class="cls-6" d="m96.65,114.56l-8.45-78.65h15.37l4.33,49.65,4.42-49.65h14.66l4.2,49.65,4.2-49.65h15.55l-8.58,78.65h-18.86l-3.93-37.85-3.75,37.85h-19.17Z"/>
      <path class="cls-6" d="m160.21,114.56V35.91h31.46v15.19h-15.46v15.33h14.84v14.79h-14.84v18.01h16.49v15.33h-32.49Z"/>
      <path class="cls-6" d="m202.46,114.56V35.91h21.32c5.72,0,9.88,1.39,12.49,4.18,2.61,2.79,3.91,7.38,3.91,13.79v3.44c0,3.69-.66,6.69-1.99,8.98-1.33,2.29-3.34,3.8-6.05,4.51,3.54.89,5.92,2.99,7.13,6.28,1.21,3.29,1.81,7.31,1.81,12.04,0,5.09-.48,9.55-1.43,13.36-.95,3.81-2.68,6.78-5.18,8.89-2.5,2.12-6.06,3.17-10.68,3.17h-21.32Zm15.37-49.02h3.22c1.46,0,2.4-.57,2.82-1.7.42-1.13.63-2.49.63-4.07v-7.91c0-2.53-1.12-3.8-3.35-3.8h-3.31v17.47Zm1.56,35.17c4.08,0,6.12-1.94,6.12-5.81v-9.83c0-2.23-.34-4-1.01-5.3-.67-1.3-1.93-1.94-3.78-1.94h-2.9v22.79c.65.06,1.18.09,1.56.09Z"/>
    </g>
    <g>
      <g>
        <path class="cls-5" d="m98.95,140.2c-1.58,0-2.71-.39-3.41-1.18-.7-.78-1.04-2.03-1.04-3.75v-1.69h3.41v2.16c0,.4.06.71.18.94s.33.34.63.34.53-.09.65-.27c.12-.18.18-.48.18-.9,0-.53-.05-.97-.16-1.33-.1-.36-.29-.7-.54-1.02-.26-.32-.62-.7-1.07-1.13l-1.55-1.47c-1.16-1.09-1.74-2.34-1.74-3.75s.34-2.59,1.02-3.36c.68-.77,1.67-1.16,2.97-1.16,1.58,0,2.71.42,3.37,1.27.66.84,1,2.12,1,3.84h-3.51v-1.19c0-.24-.07-.42-.2-.55-.13-.13-.32-.2-.54-.2-.27,0-.48.08-.6.23-.13.15-.19.35-.19.59s.07.5.2.78c.13.28.39.61.77.97l1.99,1.91c.4.38.77.78,1.1,1.2s.6.91.8,1.47c.2.56.3,1.24.3,2.04,0,1.62-.3,2.89-.9,3.81-.6.92-1.64,1.38-3.12,1.38Z"/>
        <path class="cls-5" d="m109.25,140.2c-1.38,0-2.43-.42-3.16-1.25-.73-.83-1.09-2.04-1.09-3.61v-8.2c0-1.48.36-2.6,1.08-3.36.72-.76,1.78-1.15,3.17-1.15s2.45.38,3.17,1.15c.72.77,1.08,1.89,1.08,3.36v8.2c0,1.58-.36,2.78-1.09,3.61s-1.78,1.25-3.16,1.25Zm.03-3.18c.52,0,.78-.51.78-1.52v-8.43c0-.85-.25-1.28-.77-1.28-.58,0-.86.44-.86,1.3v8.42c0,.54.07.92.2,1.15s.35.35.65.35Z"/>
        <path class="cls-5" d="m115.9,140.04v-17.26h3.45v14.32h3.55v2.94h-7Z"/>
        <path class="cls-5" d="m128.88,140.2c-1.44,0-2.5-.4-3.18-1.21s-1.02-2-1.02-3.57v-12.64h3.35v12.51c0,.29.02.56.05.83.03.27.11.48.23.65.12.17.31.25.57.25s.46-.08.58-.25c.12-.17.19-.38.22-.65.03-.27.04-.55.04-.83v-12.51h3.35v12.64c0,1.57-.34,2.76-1.02,3.57s-1.74,1.21-3.18,1.21Z"/>
        <path class="cls-5" d="m136.89,140.04v-13.95h-2.05v-3.31h7.55v3.31h-2.05v13.95h-3.45Z"/>
        <path class="cls-5" d="m144.2,140.04v-17.26h3.33v17.26h-3.33Z"/>
        <path class="cls-5" d="m154.03,140.2c-1.38,0-2.43-.42-3.16-1.25-.73-.83-1.09-2.04-1.09-3.61v-8.2c0-1.48.36-2.6,1.08-3.36.72-.76,1.78-1.15,3.17-1.15s2.45.38,3.17,1.15c.72.77,1.08,1.89,1.08,3.36v8.2c0,1.58-.36,2.78-1.09,3.61s-1.78,1.25-3.16,1.25Zm.03-3.18c.52,0,.78-.51.78-1.52v-8.43c0-.85-.25-1.28-.77-1.28-.58,0-.86.44-.86,1.3v8.42c0,.54.07.92.2,1.15s.35.35.65.35Z"/>
        <path class="cls-5" d="m160.69,140.04v-17.26h3.55l1.59,8.27v-8.27h3.33v17.26h-3.37l-1.73-8.63v8.63h-3.37Z"/>
        <path class="cls-5" d="m181.43,140.2c-1.25,0-2.25-.39-3.02-1.17-.76-.78-1.14-1.87-1.14-3.27v-7.96c0-1.67.33-2.96,1-3.84.66-.89,1.74-1.33,3.24-1.33.82,0,1.54.15,2.18.45s1.14.75,1.51,1.35c.37.6.55,1.35.55,2.26v2.98h-3.43v-2.55c0-.52-.07-.86-.2-1.04-.13-.18-.33-.27-.61-.27-.32,0-.54.12-.65.35-.11.23-.17.54-.17.93v8.64c0,.48.07.81.21,1.01s.34.29.6.29c.29,0,.5-.12.62-.36s.18-.56.18-.94v-3.11h3.47v3.27c0,1.52-.38,2.62-1.15,3.3s-1.83,1.03-3.21,1.03Z"/>
        <path class="cls-5" d="m187.94,140.04v-17.26h6.91v3.33h-3.39v3.36h3.26v3.25h-3.26v3.95h3.62v3.36h-7.13Z"/>
        <path class="cls-5" d="m197.21,140.04v-17.26h3.55l1.59,8.27v-8.27h3.33v17.26h-3.37l-1.73-8.63v8.63h-3.37Z"/>
        <path class="cls-5" d="m209.7,140.04v-13.95h-2.05v-3.31h7.55v3.31h-2.05v13.95h-3.45Z"/>
        <path class="cls-5" d="m217.17,140.04v-17.26h6.91v3.33h-3.39v3.36h3.26v3.25h-3.26v3.95h3.62v3.36h-7.13Z"/>
        <path class="cls-5" d="m226.44,140.04v-17.26h5.3c.88,0,1.55.2,2,.6.45.4.75.96.91,1.69.15.72.23,1.57.23,2.54s-.12,1.69-.36,2.26c-.24.56-.69.95-1.35,1.17.54.11.92.38,1.14.81.22.43.33.98.33,1.66v6.53h-3.4v-6.76c0-.5-.1-.82-.31-.94-.21-.12-.54-.18-1-.18v7.88h-3.49Zm3.51-10.87h.83c.48,0,.72-.52.72-1.56,0-.67-.05-1.11-.16-1.32-.1-.21-.3-.31-.59-.31h-.8v3.2Z"/>
      </g>
      <g>
        <path class="cls-7" d="m98.95,140.2c-1.58,0-2.71-.39-3.41-1.18-.7-.78-1.04-2.03-1.04-3.75v-1.69h3.41v2.16c0,.4.06.71.18.94s.33.34.63.34.53-.09.65-.27c.12-.18.18-.48.18-.9,0-.53-.05-.97-.16-1.33-.1-.36-.29-.7-.54-1.02-.26-.32-.62-.7-1.07-1.13l-1.55-1.47c-1.16-1.09-1.74-2.34-1.74-3.75s.34-2.59,1.02-3.36c.68-.77,1.67-1.16,2.97-1.16,1.58,0,2.71.42,3.37,1.27.66.84,1,2.12,1,3.84h-3.51v-1.19c0-.24-.07-.42-.2-.55-.13-.13-.32-.2-.54-.2-.27,0-.48.08-.6.23-.13.15-.19.35-.19.59s.07.5.2.78c.13.28.39.61.77.97l1.99,1.91c.4.38.77.78,1.1,1.2s.6.91.8,1.47c.2.56.3,1.24.3,2.04,0,1.62-.3,2.89-.9,3.81-.6.92-1.64,1.38-3.12,1.38Z"/>
        <path class="cls-7" d="m109.25,140.2c-1.38,0-2.43-.42-3.16-1.25-.73-.83-1.09-2.04-1.09-3.61v-8.2c0-1.48.36-2.6,1.08-3.36.72-.76,1.78-1.15,3.17-1.15s2.45.38,3.17,1.15c.72.77,1.08,1.89,1.08,3.36v8.2c0,1.58-.36,2.78-1.09,3.61s-1.78,1.25-3.16,1.25Zm.03-3.18c.52,0,.78-.51.78-1.52v-8.43c0-.85-.25-1.28-.77-1.28-.58,0-.86.44-.86,1.3v8.42c0,.54.07.92.2,1.15s.35.35.65.35Z"/>
        <path class="cls-7" d="m115.9,140.04v-17.26h3.45v14.32h3.55v2.94h-7Z"/>
        <path class="cls-7" d="m128.88,140.2c-1.44,0-2.5-.4-3.18-1.21s-1.02-2-1.02-3.57v-12.64h3.35v12.51c0,.29.02.56.05.83.03.27.11.48.23.65.12.17.31.25.57.25s.46-.08.58-.25c.12-.17.19-.38.22-.65.03-.27.04-.55.04-.83v-12.51h3.35v12.64c0,1.57-.34,2.76-1.02,3.57s-1.74,1.21-3.18,1.21Z"/>
        <path class="cls-7" d="m136.89,140.04v-13.95h-2.05v-3.31h7.55v3.31h-2.05v13.95h-3.45Z"/>
        <path class="cls-7" d="m144.2,140.04v-17.26h3.33v17.26h-3.33Z"/>
        <path class="cls-7" d="m154.03,140.2c-1.38,0-2.43-.42-3.16-1.25-.73-.83-1.09-2.04-1.09-3.61v-8.2c0-1.48.36-2.6,1.08-3.36.72-.76,1.78-1.15,3.17-1.15s2.45.38,3.17,1.15c.72.77,1.08,1.89,1.08,3.36v8.2c0,1.58-.36,2.78-1.09,3.61s-1.78,1.25-3.16,1.25Zm.03-3.18c.52,0,.78-.51.78-1.52v-8.43c0-.85-.25-1.28-.77-1.28-.58,0-.86.44-.86,1.3v8.42c0,.54.07.92.2,1.15s.35.35.65.35Z"/>
        <path class="cls-7" d="m160.69,140.04v-17.26h3.55l1.59,8.27v-8.27h3.33v17.26h-3.37l-1.73-8.63v8.63h-3.37Z"/>
        <path class="cls-7" d="m181.43,140.2c-1.25,0-2.25-.39-3.02-1.17-.76-.78-1.14-1.87-1.14-3.27v-7.96c0-1.67.33-2.96,1-3.84.66-.89,1.74-1.33,3.24-1.33.82,0,1.54.15,2.18.45s1.14.75,1.51,1.35c.37.6.55,1.35.55,2.26v2.98h-3.43v-2.55c0-.52-.07-.86-.2-1.04-.13-.18-.33-.27-.61-.27-.32,0-.54.12-.65.35-.11.23-.17.54-.17.93v8.64c0,.48.07.81.21,1.01s.34.29.6.29c.29,0,.5-.12.62-.36s.18-.56.18-.94v-3.11h3.47v3.27c0,1.52-.38,2.62-1.15,3.3s-1.83,1.03-3.21,1.03Z"/>
        <path class="cls-7" d="m187.94,140.04v-17.26h6.91v3.33h-3.39v3.36h3.26v3.25h-3.26v3.95h3.62v3.36h-7.13Z"/>
        <path class="cls-7" d="m197.21,140.04v-17.26h3.55l1.59,8.27v-8.27h3.33v17.26h-3.37l-1.73-8.63v8.63h-3.37Z"/>
        <path class="cls-7" d="m209.7,140.04v-13.95h-2.05v-3.31h7.55v3.31h-2.05v13.95h-3.45Z"/>
        <path class="cls-7" d="m217.17,140.04v-17.26h6.91v3.33h-3.39v3.36h3.26v3.25h-3.26v3.95h3.62v3.36h-7.13Z"/>
        <path class="cls-7" d="m226.44,140.04v-17.26h5.3c.88,0,1.55.2,2,.6.45.4.75.96.91,1.69.15.72.23,1.57.23,2.54s-.12,1.69-.36,2.26c-.24.56-.69.95-1.35,1.17.54.11.92.38,1.14.81.22.43.33.98.33,1.66v6.53h-3.4v-6.76c0-.5-.1-.82-.31-.94-.21-.12-.54-.18-1-.18v7.88h-3.49Zm3.51-10.87h.83c.48,0,.72-.52.72-1.56,0-.67-.05-1.11-.16-1.32-.1-.21-.3-.31-.59-.31h-.8v3.2Z"/>
      </g>
    </g>
  </g>
</svg>